<svg width="320" height="320" viewBox="0 0 320 320" fill="none" xmlns="http://www.w3.org/2000/svg">
<path d="M51 254C43.5833 254 37.4167 252.792 32.5 250.375C27.5833 247.875 23.7083 244.292 20.875 239.625C18.0417 234.958 16 229.333 14.75 222.75C13.5833 216.167 13 208.75 13 200.5L39.5 198C39.5 202 39.625 205.875 39.875 209.625C40.2083 213.292 40.75 216.625 41.5 219.625C42.3333 222.542 43.5 224.875 45 226.625C46.5833 228.375 48.5833 229.25 51 229.25C55 229.25 57.8333 227.417 59.5 223.75C61.1667 220 62 215.5 62 210.25C62 205 60.625 199.542 57.875 193.875C55.125 188.208 51.8333 182.833 48 177.75C41.5 169.083 35.7917 161.042 30.875 153.625C26.0417 146.208 22.25 138.917 19.5 131.75C16.8333 124.583 15.5 117.083 15.5 109.25C15.5 103.083 16.2917 97.4167 17.875 92.25C19.4583 87 21.75 82.4583 24.75 78.625C27.8333 74.7083 31.5417 71.6667 35.875 69.5C40.2083 67.3333 45.1667 66.25 50.75 66.25C57.6667 66.25 63.5 67.4167 68.25 69.75C73.0833 72.0833 76.9583 75.4167 79.875 79.75C82.875 84.0833 85.0417 89.25 86.375 95.25C87.7917 101.167 88.5 107.75 88.5 115L62 117.5C62 114.417 61.8333 111.333 61.5 108.25C61.25 105.083 60.75 102.208 60 99.625C59.25 97.0417 58.1667 94.9583 56.75 93.375C55.3333 91.7917 53.5 91 51.25 91C47.75 91 45.3333 92.5 44 95.5C42.6667 98.4167 42 102.583 42 108C42 115 43.875 121.75 47.625 128.25C51.375 134.75 56.4167 142.333 62.75 151C70.3333 161.25 76.5 170.667 81.25 179.25C86.0833 187.833 88.5 197.333 88.5 207.75C88.5 214.333 87.7917 220.458 86.375 226.125C84.9583 231.708 82.7083 236.583 79.625 240.75C76.625 244.917 72.75 248.167 68 250.5C63.3333 252.833 57.6667 254 51 254ZM97.3477 252L125.098 68.25H158.098L185.848 252H159.598L154.598 214.5H128.598L123.598 252H97.3477ZM132.348 186H150.848L143.098 124.25L142.348 114.5H140.848L140.098 124.25L132.348 186ZM200.141 252V68.25H234.391L249.141 163.5L250.391 173.25H250.891L252.141 163.5L266.891 68.25H301.141V252H276.141V128.75H274.641L273.641 136.5L257.641 252H243.641L227.641 136.5L226.641 128.75H225.141V252H200.141Z" fill="white"/>
</svg>
